<?xml version="1.0" standalone="no"?>
<!DOCTYPE svg PUBLIC "-//W3C//DTD SVG 1.1//EN" "http://www.w3.org/Graphics/SVG/1.1/DTD/svg11.dtd" >
<svg xmlns="http://www.w3.org/2000/svg">
  <metadata>Created by iconfont</metadata>
  <defs>
  <font id="iconfont" horiz-adv-x="1024">
    <font-face
      font-family="iconfont"
      font-weight="400"
      font-stretch="normal"
      units-per-em="1024"
      ascent="896"
      descent="-128"
    />
      <missing-glyph />
      
      <glyph glyph-name="quanxiantixi" unicode="&#58881;" d="M894.02 755.302L522.24 873.745a33.929 33.929 0 0 1-20.617 0L129.98 755.371a33.929 33.929 0 0 1-23.62-32.359v-468.719c0-72.567 65.604-152.917 200.567-245.76A1719.979 1719.979 0 0 1 496.98-103.834a33.929 33.929 0 0 1 30.038 0 1720.32 1720.32 0 0 1 190.054 112.367c134.963 92.843 200.568 173.193 200.568 245.76V722.944a33.929 33.929 0 0 1-23.62 32.358z m-44.237-501.077c0-86.22-201.113-219.75-337.783-289.724-136.67 69.905-337.783 203.435-337.783 289.724V698.163L512 805.888l337.783-107.725v-443.87z m-482.508 265.49c0-69.428 48.332-127.66 113.118-143.02v-218.862a33.929 33.929 0 0 1 67.857 0v90.453h56.183a33.929 33.929 0 0 1 0 67.857h-56.252v60.552a147.251 147.251 0 0 1 113.05 143.02 147.183 147.183 0 0 1-146.91 146.909 147.183 147.183 0 0 1-147.046-146.91z m147.046 79.12a79.19 79.19 0 0 0 0-158.31 79.19 79.19 0 0 0 0 158.31z"  horiz-adv-x="1024" />
      
      <glyph glyph-name="pingtaijichushuju" unicode="&#58882;" d="M224.575 820.886h573.317c10.73-1.533 19.928-1.533 30.659-4.599 75.114-16.862 121.102-84.311 121.102-150.227-1.533-154.826 0-311.186 0-466.012 0-9.198 0-18.395-1.533-26.06-15.33-75.114-76.647-127.234-154.827-127.234H230.707c-24.527 0-49.054 4.6-70.515 16.863-56.719 30.658-85.845 78.18-85.845 142.563V664.527c0 7.665 0 13.796 1.533 21.461 6.132 62.85 55.186 118.036 118.036 131.832 9.198 1.533 19.928 1.533 30.659 3.066z m288.191-62.85H233.772c-9.197 0-16.862 0-26.06-3.066-42.922-10.73-72.047-47.52-72.047-91.976v-459.88c0-6.132 0-10.73 1.533-16.863 7.664-47.52 45.988-78.18 93.509-78.18H807.09c49.054 7.666 81.245 44.456 81.245 95.043V664.527c0 13.796-1.533 27.593-7.664 39.856-18.396 35.258-47.521 53.653-88.91 53.653H512.765z m-4.598-812.455h-229.94c-16.863 0-27.593 9.197-30.66 22.994-4.598 18.395 7.666 35.257 26.06 38.323h466.013c16.862 0 29.125-9.197 33.724-22.994 6.132-19.928-10.73-38.323-30.658-38.323h-234.54zM322.683 497.437H384v-245.27h-61.317v245.27z m105.772 104.24h61.317v-351.042h-61.317V601.677zM534.228 462.18h61.317v-210.012h-61.317V462.18zM640 531.162h61.317v-280.527H640V531.162z"  horiz-adv-x="1024" />
      
      <glyph glyph-name="zhongmingming" unicode="&#58982;" d="M382.933333 42.666667h-170.666666V725.333333h298.666666v-213.333333h213.333334v-132.266667l85.333333 85.333334V554.666667l-256 256h-341.333333a85.333333 85.333333 0 0 1-85.333334-85.333334v-682.666666a85.333333 85.333333 0 0 1 85.333334-85.333334h170.666666v85.333334m435.2 298.666666a32.426667 32.426667 0 0 0 17.066667-8.533333l55.466667-55.466667c8.533333-9.813333 8.533333-24.32 0-34.133333l-42.666667-42.666667-89.6 89.6 42.666667 42.666667a22.186667 22.186667 0 0 0 17.066666 8.533333m0-166.4l-260.266666-260.266666h-89.6v89.6l260.266666 260.266666 89.6-89.6z"  horiz-adv-x="1024" />
      
      <glyph glyph-name="unlink" unicode="&#58987;" d="M48.232882 499.566816h164.776629a40.224883 40.224883 0 0 1 29.078229 12.115928 40.70952 40.70952 0 0 1-29.078229 69.787749H48.232882a41.194157 41.194157 0 0 1 0-81.903677z m129.882755 165.745903a40.70952 40.70952 0 0 1 29.078228-11.631291 40.70952 40.70952 0 0 1 29.078229 69.787749l-116.312915 116.312914a41.194157 41.194157 0 0 1-58.156457-58.156457z m369.778141-457.012827L345.800089 4.267653999999993A149.268241 149.268241 0 1 0 132.559745 217.50799800000004l204.032238 202.093689a41.194157 41.194157 0 0 1-58.156457 58.156457L74.403288 273.725906a231.656555 231.656555 0 1 1 327.130072-327.614709l204.032238 204.032238a41.194157 41.194157 0 0 1-58.156457 58.156457z m121.643923-83.357589a40.70952 40.70952 0 0 1-41.194157-41.194157v-164.776629a41.194157 41.194157 0 0 1 81.903677 0v164.776629a40.224883 40.224883 0 0 1-12.115928 29.078228 41.194157 41.194157 0 0 1-28.593592 12.115929z m313.560233 149.752878h-164.776629a40.224883 40.224883 0 0 1-29.078229-12.115929 40.70952 40.70952 0 0 1 29.078229-69.787749h164.776629a41.194157 41.194157 0 0 1 0 81.903678z m-129.882755-165.745904a40.70952 40.70952 0 0 1-29.078229 11.631292 40.70952 40.70952 0 0 1-29.078228-69.787749l116.312914-116.312915a41.194157 41.194157 0 1 1 58.156458 58.156458zM361.308477 649.319693a40.70952 40.70952 0 0 1 41.194158 41.194158V854.805843a41.194157 41.194157 0 0 1-81.903678 0v-164.776629a40.224883 40.224883 0 0 1 12.115929-29.078229 41.194157 41.194157 0 0 1 28.593591-11.631292z m594.649777 178.34647a231.656555 231.656555 0 0 1-327.61471 0L424.311306 623.633925a41.194157 41.194157 0 0 1 58.156458-58.156458L685.04609 769.994342a149.752878 149.752878 0 0 0 256.857687-105.650897A147.814329 147.814329 0 0 0 897.801796 556.753999l-204.032237-204.032238a41.194157 41.194157 0 0 1 58.156457-58.156457l204.032238 204.032238a231.656555 231.656555 0 0 1 0 329.068621z"  horiz-adv-x="1030" />
      
      <glyph glyph-name="tishi" unicode="&#58917;" d="M453.756599 56.584918c212.549665 0 385.702453 173.108819 385.702453 385.702453S666.361226 827.978831 453.756599 827.978831 68.065139 654.881005 68.065139 442.287371s173.097826-385.702453 385.69146-385.702453m0-68.054147C203.063196-11.469229 0 191.593967 0 442.243401S203.063196 895.967023 453.756599 895.967023s453.712629-203.030218 453.71263-453.723622-203.019226-453.712629-453.71263-453.71263z m0 0M453.756599 215.436552a45.387752 45.387752 0 1 0 45.365767 45.376759 45.530653 45.530653 0 0 0-45.387752-45.376759z m2.715131 136.119285h-5.65011a42.573689 42.573689 0 0 0-42.452772 42.628651V626.740379a42.529719 42.529719 0 0 0 42.452772 42.44178h5.65011a42.540712 42.540712 0 0 0 42.650636-42.44178v-232.555891a42.518727 42.518727 0 0 0-42.628651-42.628651z m0 0"  horiz-adv-x="1145" />
      
      <glyph glyph-name="mianxingwendujitubiao" unicode="&#59044;" d="M661.2 678.2h69.2c12 0 21.1 9 21.1 21.1 0 12-9 21.1-21.1 21.1h-69.2c-12 0-21.1-9-21.1-21.1 0.1-12.1 10.6-21.1 21.1-21.1z m70.8-22.6h-69.2c-12 0-21.1-9-21.1-21.1 0-12 9-21.1 21.1-21.1H732c12 0 21.1 9 21.1 21.1-0.1 12.1-9.1 21.1-21.1 21.1z m0-64.7h-69.2c-12 0-21.1-9-21.1-21.1 0-12 9-21.1 21.1-21.1H732c12 0 21.1 9 21.1 21.1-0.1 12.1-9.1 21.1-21.1 21.1z m0 0M577.9 256.8V702.3c0 69.2-57.2 129.4-123.4 129.4-67.7 0-121.9-58.7-121.9-127.9v-443.9c-37.6-34.7-61.6-81.3-61.6-137 0-103.8 81.3-186.6 183.6-186.6s183.6 84.3 183.6 186.6c-1.6 55.7-22.6 99.3-60.3 133.9zM454.5 37.4c-51.3 0-94.2 43-94.2 95.9 0 26.5 11.6 52.9 31.4 71.1l24.8 21.5V328.4c0 19.8 16.5 38 38 38 19.8 0 36.4-18.2 36.4-38v-104.2l24.8-21.5c21.5-19.8 33.1-44.6 33.1-69.4 0-52.9-41.3-95.9-94.3-95.9z"  horiz-adv-x="1024" />
      
      <glyph glyph-name="dianchi" unicode="&#58934;" d="M630.997333-20.074667l57.728-0.021333h36.48l6.698667-0.021333h18.794667l5.802666-0.021334h15.893334l4.757333-0.021333h12.586667l3.562666-0.021333h6.250667l2.624-0.021334h4.245333l1.578667-0.021333 2.090667-0.021333c0.874667 0 0.768-0.021333-0.448-0.042667A65.066667 65.066667 0 0 0 744.576-85.333333H279.424a65.066667 65.066667 0 0 0-64.96 61.226666l-0.106667 3.84c-1.216 0-1.344 0-0.426666 0.021334h2.069333l1.578667 0.021333h4.245333l2.624 0.021333h6.229333l3.605334 0.021334h12.565333l4.757333 0.021333 15.893334 0.021333h24.597333l6.698667 0.021334h28.8l7.68 0.021333h57.728l8.746666 0.021333h229.248z m-100.245333 698.773334l37.269333-0.042667c133.12-0.149333 250.816-0.853333 242.197334-2.133333l-0.576-0.064v-672.917334c12.992-1.28-99.050667-2.005333-229.418667-2.197333l-14.293333-0.021333h-7.168l-18.645334-0.021334H465.237333l-7.189333 0.021334h-14.293333c-128 0.213333-238.314667 0.917333-229.973334 2.133333l0.576 0.085333V676.458667c-13.397333 1.322667 106.133333 2.048 241.621334 2.197333l37.248 0.042667h37.546666zM640 547.712l-250.282667-190.570667 85.674667-23.402666L384 154.752l250.282667 190.570667-85.653334 23.402666L640 547.712z m104.576 218.304a65.066667 65.066667 0 0 0 65.066667-65.066667c1.216 0 1.322667 0 0.426666-0.021333h-2.069333l-1.578667-0.021333h-4.245333l-2.624-0.021334h-6.250667l-3.584-0.021333-12.586666-0.021333h-4.736l-15.893334-0.021334h-24.597333l-6.72-0.021333h-28.8l-7.658667-0.021333-57.728-0.021334H392.981333l-57.728 0.021334H298.816l-6.72 0.021333h-18.794667l-5.802666 0.021333h-15.893334l-4.757333 0.021334h-12.586667l-3.584 0.021333h-6.229333l-2.624 0.021333h-4.245333l-1.578667 0.021334-2.090667 0.021333c-0.896 0-0.768 0.021333 0.448 0.042667l0.106667 3.818666a65.066667 65.066667 0 0 0 64.96 61.226667zM554.453333 853.333333a21.333333 21.333333 0 0 0 21.333334-21.333333v-43.946667c1.92-0.085333-9.130667-0.128-25.472-0.170666h-9.386667l-4.992-0.021334h-62.250667a843.136 843.136 0 0 0-25.472 0.213334V832a21.333333 21.333333 0 0 0 21.333334 21.333333z"  horiz-adv-x="1024" />
      
      <glyph glyph-name="tongzhi" unicode="&#58910;" d="M521.898667 840.704a313.344 313.344 0 0 0 313.344-313.344v-375.466667H208.213333v375.466667a313.344 313.344 0 0 0 313.685334 313.344zM881.664 118.784H162.133333a34.133333 34.133333 0 0 0 0 68.266667h719.530667a34.133333 34.133333 0 0 0 0-68.266667zM365.568 84.650667a156.330667 156.330667 0 0 1 312.661333 0z"  horiz-adv-x="1024" />
      
      <glyph glyph-name="xiaoxi" unicode="&#58901;" d="M793.389 89.31h120.208a37.087 37.087 0 0 1 0 74.218h-53.159V450.783a356.307 356.307 0 0 1-267.843 345.132 89.043 89.043 0 1 1-176.75 0 356.307 356.307 0 0 1-267.71-345.132v-287.255H103.88a37.087 37.087 0 1 1 0-74.217h149.771v0.133H793.39v-0.133z m-422.69-83.745a134.945 134.945 0 0 1 267.13 0H370.7z"  horiz-adv-x="1024" />
      
      <glyph glyph-name="leida" unicode="&#58930;" d="M511.277013 895.36c-58.154667 0-115.328-9.813333-170.026666-29.269333-10.581333-3.797333-19.114667-11.434667-23.936-21.632a42.001067 42.001067 0 0 1-1.664-32.213334 42.2528 42.2528 0 0 1 39.722666-28.032c4.821333 0 9.557333 0.853333 14.122667 2.474667 45.610667 16.170667 93.312 24.405333 142.506667 24.405333 187.093333-0.042667 350.805333-119.722667 407.466666-297.813333 56.661333-178.090667-7.936-370.176-160.725333-478.037333-72.576-51.242667-157.952-78.378667-246.869333-78.378667-93.909333 0-183.125333 29.909333-258.005334 86.485333-149.205333 112.725333-207.573333 306.773333-145.237333 482.944 4.992 14.122667 2.090667 29.994667-7.68 41.429334a42.026667 42.026667 0 0 1-32.085333 14.805333 42.154667 42.154667 0 0 1-39.765334-27.946667A505.506133 505.506133 0 0 1 0.002347 384c0-281.941333 229.674667-511.36 512-511.36S1024.002347 102.05866700000001 1024.002347 384 794.32768 895.36 511.277013 895.36zM370.26368 465.92c-40.618667-69.930667-24.149333-159.317333 39.637333-210.090667 28.928-23.04 65.237333-35.754667 102.229334-35.754666 43.818667 0 84.992 17.066667 115.968 47.957333 59.093333 59.008 64.341333 152.704 12.245333 217.941333-31.274667 39.168-78.037333 61.653333-128.298667 61.653334-28.885333 0-57.173333-7.594667-82.133333-22.058667L176.301013 778.666667a41.7792 41.7792 0 0 1-29.824 12.330666c-11.264 0-21.888-4.352-29.824-12.330666-16.426667-16.426667-16.426667-43.178667 0-59.605334l253.610667-253.141333z m221.397333-81.92c0-43.861333-35.712-79.530667-79.658666-79.530667s-79.658667 35.712-79.658667 79.530667 35.712 79.488 79.658667 79.488 79.658667-35.626667 79.658666-79.488z"  horiz-adv-x="1024" />
      
      <glyph glyph-name="help" unicode="&#58905;" d="M512 769.5735003A385.5735003 385.5735003 0 1 0 126.4264997 384 385.5735003 385.5735003 0 0 0 512 769.5735003m0 77.1146997a462.6882 462.6882 0 1 1 462.6882-462.6882A462.6882 462.6882 0 0 1 512 846.6882zM460.3331513 215.88995369999998m51.4098001 1e-8l0 0q51.40980011 0 51.4097992-51.40980011l0 0q0-51.40980011-51.4097992-51.4097992l0 0q-51.40980011 0-51.40980011 51.4097992l0 0q0 51.40980011 51.40980011 51.40980011ZM659.2890773 533.85956689A152.687106 152.687106 0 0 1 537.7048996 652.1021074a154.22940029 154.22940029 0 0 1-175.05036841-98.4497677 39.5855456 39.5855456 0 0 1 25.70489962-51.4098001 38.81439889 38.81439889 0 0 1 46.78291809 25.7049005 77.11469971 77.11469971 0 0 0 98.4497668 46.26882 73.51601389 73.51601389 0 0 0 47.29701619-48.3252124 77.11469971 77.11469971 0 0 0-73.25896529-102.8195993 38.55735029 38.55735029 0 0 1-38.55734941-38.5573503v-102.81960021a38.55735029 38.55735029 0 0 1 77.11469971 0V332.59019989a25.7048996 25.7048996 0 0 0 15.42294029 23.64850811 154.22940029 154.22940029 0 0 1 97.6786201 177.62085889z"  horiz-adv-x="1024" />
      
      <glyph glyph-name="gongzuotai" unicode="&#59020;" d="M910.762667 526.336l-135.765334-135.765333a85.333333 85.333333 0 0 0-120.661333 0l-135.765333 135.765333a85.333333 85.333333 0 0 0 0 120.661333l135.765333 135.765334a85.333333 85.333333 0 0 0 120.661333 0l135.765334-135.765334a85.333333 85.333333 0 0 0 0-120.661333zM362.666667-42.666667H170.666667a85.333333 85.333333 0 0 0-85.333334 85.333334v192a85.333333 85.333333 0 0 0 85.333334 85.333333h192a85.333333 85.333333 0 0 0 85.333333-85.333333v-192a85.333333 85.333333 0 0 0-85.333333-85.333334z m0 448H170.666667a85.333333 85.333333 0 0 0-85.333334 85.333334v192a85.333333 85.333333 0 0 0 85.333334 85.333333h192a85.333333 85.333333 0 0 0 85.333333-85.333333v-192a85.333333 85.333333 0 0 0-85.333333-85.333334z m256-85.333333h192a85.333333 85.333333 0 0 0 85.333333-85.333333v-192a85.333333 85.333333 0 0 0-85.333333-85.333334h-192a85.333333 85.333333 0 0 0-85.333334 85.333334v192a85.333333 85.333333 0 0 0 85.333334 85.333333z"  horiz-adv-x="1024" />
      
      <glyph glyph-name="jiankongguanlishebei" unicode="&#59002;" d="M106.666667 64c0-46.933333 38.4-85.333333 85.333333-85.333333h640c46.933333 0 85.333333 38.4 85.333333 85.333333v64H106.666667v-64z m266.666666 21.333333c17.066667 0 32-14.933333 32-32s-14.933333-32-32-32-32 14.933333-32 32 14.933333 32 32 32z m-128 0c17.066667 0 32-14.933333 32-32s-14.933333-32-32-32-32 14.933333-32 32 14.933333 32 32 32zM832 789.333333H192C145.066667 789.333333 106.666667 750.933333 106.666667 704v-512h810.666666V704c0 46.933333-38.4 85.333333-85.333333 85.333333z m-40.533333-266.666666c-21.333333-12.8-42.666667-10.666667-59.733334-4.266667l-149.333333-149.333333c-14.933333-14.933333-36.266667-17.066667-53.333333-6.4l-130.133334 81.066666c-4.266667 4.266667-12.8 2.133333-17.066666-2.133333L258.133333 298.666667c-6.4-6.4-14.933333-10.666667-23.466666-10.666667-8.533333 0-14.933333 2.133333-21.333334 8.533333-12.8 10.666667-14.933333 32-2.133333 44.8l142.933333 164.266667c12.8 14.933333 36.266667 19.2 55.466667 8.533333l132.266667-83.2c4.266667-2.133333 10.666667-2.133333 14.933333 2.133334l130.133333 130.133333c-6.4 17.066667-8.533333 36.266667 4.266667 59.733333 12.8 21.333333 34.133333 38.4 59.733333 40.533334 46.933333 4.266667 85.333333-34.133333 81.066667-81.066667-2.133333-27.733333-19.2-49.066667-40.533333-59.733333zM757.333333 586.666667m-32 0a32 32 0 1 1 64 0 32 32 0 1 1-64 0Z"  horiz-adv-x="1024" />
      
      <glyph glyph-name="yujingxinxi" unicode="&#58916;" d="M511.93 676.551c195.813 0 354.545-158.557 354.545-354.152v-258.645a35.563 35.563 0 0 0-35.59-35.501h-637.91a35.563 35.563 0 0 0-35.58 35.501V322.407c0 195.587 158.73 354.144 354.535 354.144zM480.86 871.894h62.151c4.946 0 8.932-3.935 8.932-8.872v-106.55a8.863 8.863 0 0 0-8.888-8.88h-62.239a8.897 8.897 0 0 0-8.888 8.88V863.021a8.866 8.866 0 0 0 8.888 8.872h0.044zM139.879 734.61a8.897 8.897 0 0 0 12.603 0l75.368-75.331a8.87 8.87 0 0 0 0-12.553l-43.938-43.98a8.897 8.897 0 0 0-12.561 0l-75.454 75.366a8.87 8.87 0 0 0 0 12.561l44.025 43.981-0.044-0.044z m744.181 0l44.035-43.945a8.87 8.87 0 0 0 0-12.545l-75.455-75.374a8.897 8.897 0 0 0-12.569 0l-44.078 43.98a8.87 8.87 0 0 0 0 12.554l75.454 75.365a8.897 8.897 0 0 0 12.561 0l0.052-0.035zM156.295-42.753h711.27a35.563 35.563 0 0 0 35.581-35.546v-26.675c0-4.85-3.986-8.827-8.932-8.827H129.646a8.897 8.897 0 0 0-8.932 8.88v26.665a35.555 35.555 0 0 0 35.59 35.503zM320.792 309.07v-280.818h71.128v280.82h-71.127z"  horiz-adv-x="1024" />
      
      <glyph glyph-name="grouping" unicode="&#58922;" d="M992 384c0 12-6 24-18 30l-108 60 108 60c12 0 18 12 18 30 0 12-6 24-18 30L530 828c-12 6-24 6-30 0L50 594c-12-6-18-18-18-30s6-24 18-30l108-60-108-60c-12-6-18-18-18-30s6-24 18-30l108-60-108-60c-12 0-18-12-18-30 0-12 6-24 18-30l444-234c6 0 12-6 18-6 6 0 12 0 18 6l444 234c12 6 18 18 18 30s-6 24-18 30l-108 60 108 60c12 6 18 18 18 30zM140 564L512 756 884 564 512 366 140 564z m744-360L512 12 140 204l90 48 264-138c6 0 12-6 18-6 6 0 12 0 18 6l264 138 90-48z m-372-18L140 384l90 48 264-138c6 0 12-6 18-6 6 0 12 0 18 6l264 138 90-48L512 186z"  horiz-adv-x="1024" />
      
      <glyph glyph-name="a-14yonghubangding" unicode="&#58963;" d="M665.5 188.5c-4.2 1.2-8.5 2-13 2.6-4.1 0.5-8.2 0.8-12.4 0.8h-77.3l-64-64h-0.1l-64-64H384c-17.6 0-32 14.4-32 32s14.4 32 32 32h99.1l64 64H384c-53 0-96-43-96-96 0-44.2 29.9-81.4 70.5-92.6 4.2-1.2 8.5-2 13-2.6 4.1-0.5 8.2-0.8 12.4-0.8h77.3l64 64h0.1l64 64H640c17.6 0 32-14.4 32-32s-14.4-32-32-32h-99.1l-64-64H640c53 0 96 43 96 96 0 44.2-29.9 81.4-70.5 92.6zM648.1 327.2C720.1 372.5 768 452.6 768 544c0 141.4-114.6 256-256 256S256 685.4 256 544c0-91.4 47.9-171.5 119.9-216.8-135.4-51.3-234.2-177-246.6-327.2h64.2c3.2 31.9 11.1 62.9 23.6 92.5 16.1 38.1 39.2 72.3 68.6 101.7 29.4 29.4 63.6 52.5 101.7 68.6C426.9 279.5 468.8 288 512 288s85.1-8.5 124.5-25.1c38.1-16.1 72.3-39.2 101.7-68.6 29.4-29.4 52.5-63.6 68.6-101.7 12.5-29.6 20.4-60.6 23.6-92.5h64.2c-12.3 150.1-111.1 275.7-246.5 327.1z m-271.9 81C340 444.5 320 492.7 320 544s20 99.5 56.2 135.8C412.5 716 460.7 736 512 736s99.5-20 135.8-56.2C684 643.5 704 595.3 704 544s-20-99.5-56.2-135.8C611.5 372 563.3 352 512 352s-99.5 20-135.8 56.2z"  horiz-adv-x="1024" />
      
      <glyph glyph-name="bind" unicode="&#58967;" d="M544.915595 204.215095l-205.310971-205.529972a149.50398 149.50398 0 0 0-106.349986-44.105994c-40.228994 0-77.969989 15.652998-106.349985 44.104994a149.86998 149.86998 0 0 0-44.177994 106.349985c0 40.227995 15.579998 78.042989 44.031994 106.349986l205.530972 205.529972a41.252994 41.252994 0 0 1 0 58.514991 41.252994 41.252994 0 0 1-58.513992 0L68.317661 269.898086A231.715968 231.715968 0 0 1 0.00067 105.034108c0-62.171991 24.209997-120.831983 68.315991-164.790977a232.447968 232.447968 0 0 1 164.789977-68.241991c59.757992 0 119.442984 22.673997 164.863978 68.241991L603.430587 145.774103a41.252994 41.252994 0 1 1-58.514992 58.440992zM955.832539 827.758009a233.325968 233.325968 0 0 1-329.727955 0L420.573612 622.226037a41.252994 41.252994 0 0 1 0-58.439992c16.163998-16.164998 42.421994-16.164998 58.513992 0l205.384972 205.529972a150.673979 150.673979 0 0 0 256.949965-106.348985c0-40.228994-15.651998-78.042989-44.104994-106.349986l-205.529972-205.529972a41.252994 41.252994 0 0 1 29.329996-70.50999 41.398994 41.398994 0 0 1 29.255996 12.067998l205.531972 205.530972a233.325968 233.325968 0 0 1-0.147 329.581955zM481.574604 292.864082L598.675588 410.040066a41.252994 41.252994 0 0 1 0 58.440992 41.252994 41.252994 0 0 1-58.439992 0L423.132612 351.306074a41.252994 41.252994 0 1 1 58.439992-58.514992z"  horiz-adv-x="1024" />
      
      <glyph glyph-name="xiugaimima1" unicode="&#59199;" d="M354.697 637.672L111.659 219.44c-6.71-11.928-8.946-25.348-8.2-39.512l17.892-175.196c3.727-24.602 26.093-37.276 49.204-27.584l156.557 73.06c10.437 4.473 23.11 17.147 29.075 26.839l327.281 563.608c11.928 22.365 4.473 50.695-17.147 63.369L502.308 797.958c-21.62 12.674-50.695 5.964-63.368-16.401l-46.223-78.279c-1.491-2.237-0.746-5.219 1.491-6.71l235.583-135.684c2.237-1.491 2.982-4.473 1.491-6.71l-30.566-52.93c-1.491-2.237-4.473-2.982-6.71-1.491-32.802 19.383-239.31 137.92-239.31 137.92z m17.147-647.853l-232.601-96.917c-35.785-14.91-68.587 3.728-73.806 41.004L27.416 189.618c-1.491 13.42 1.491 26.838 7.455 39.512L399.428 859.091c19.383 32.803 61.878 43.24 94.68 24.602l246.02-141.648c33.548-19.383 44.731-61.132 26.839-93.934L402.41 16.659c-5.964-10.437-19.383-22.365-30.566-26.839z m526.332-102.881h-370.52c-25.348 0-46.222 15.656-46.222 35.785 0 19.383 20.875 35.784 46.222 35.784h365.302c25.348 0 46.222-15.655 46.222-35.784v-3.728c0-17.892-17.893-32.057-41.003-32.057z m1.49 171.468H625.32c-25.348 0-46.222 16.401-46.222 36.53s20.875 36.53 46.222 36.53h268.386c25.348 0 46.222-16.4 46.222-36.53v-3.727c0.745-17.893-17.147-32.803-40.258-32.803z m-1.49-17.147"  horiz-adv-x="1024" />
      
      <glyph glyph-name="shezhi1" unicode="&#58903;" d="M512 224A160 160 0 1 0 672 384 160 160 0 0 0 512 224z m0 256A96 96 0 1 1 608 384 96 96 0 0 1 512 480zM512-96a470.4 470.4 0 0 0-99.2 10.24 33.28 33.28 0 0 0-22.4 17.92l-64 140.8-147.84-16a35.2 35.2 0 0 0-27.52 10.88 482.56 482.56 0 0 0-99.2 179.84 33.92 33.92 0 0 0 5.12 28.16L139.52 384 56.96 492.16a33.92 33.92 0 0 0-5.12 28.16 482.56 482.56 0 0 0 99.2 179.84 34.56 34.56 0 0 0 27.52 10.88l147.84-16 64 140.8a33.28 33.28 0 0 0 22.4 17.92 493.44 493.44 0 0 0 198.4 0 33.28 33.28 0 0 0 22.4-17.92l64-140.8 147.84 16a34.56 34.56 0 0 0 27.52-10.88 482.56 482.56 0 0 0 99.2-179.84 33.92 33.92 0 0 0-5.12-28.16L884.48 384l82.56-108.16a33.92 33.92 0 0 0 5.12-28.16 482.56 482.56 0 0 0-99.2-179.84 34.56 34.56 0 0 0-27.52-10.88l-147.84 16-64-140.8a33.28 33.28 0 0 0-22.4-17.92A470.4 470.4 0 0 0 512-96z m-70.4 69.76a433.28 433.28 0 0 1 140.8 0l64 146.56a32.64 32.64 0 0 0 32.64 18.56l153.6-16a398.08 398.08 0 0 1 70.4 128L819.2 364.79999999999995a30.72 30.72 0 0 0 0 38.4l86.4 113.92a398.08 398.08 0 0 1-70.4 128l-153.6-16a33.28 33.28 0 0 0-32.64 18.56l-64 146.56a433.28 433.28 0 0 1-140.8 0l-64-146.56a33.28 33.28 0 0 0-32.64-18.56L192 645.12a398.08 398.08 0 0 1-70.4-128L204.8 403.2a30.72 30.72 0 0 0 0-38.4l-86.4-113.92a398.08 398.08 0 0 1 70.4-128l153.6 16a33.28 33.28 0 0 0 32.64-18.56z"  horiz-adv-x="1024" />
      
      <glyph glyph-name="piliangtianjia" unicode="&#59091;" d="M896-96H320a98.35428563 98.35428563 0 0 0-96 96V576a98.35428563 98.35428563 0 0 0 96 96h576a98.43428531 98.43428531 0 0 0 96-96v-576a98.43428531 98.43428531 0 0 0-96-96z m31.99999969 672a19.54285688 19.54285688 0 0 1 0 3.6571425 30.19428562 30.19428562 0 0 1-31.99999969 28.34285719H320a19.53142875 19.53142875 0 0 1-3.6571425 0 30.19428562 30.19428562 0 0 1-28.34285719-31.99999969v-576a19.54285688 19.54285688 0 0 1 0-3.6571425 30.12571406 30.12571406 0 0 1 31.99999969-28.34285719h576a19.54285688 19.54285688 0 0 1 3.6571425 0 30.19428562 30.19428562 0 0 1 28.34285719 31.99999969V576z m-162.51428531-319.99999969H639.99999969v-125.60000062a31.99999969 31.99999969 0 0 0-63.99999938 0V256.00000031H450.39999969a31.99999969 31.99999969 0 0 0 0 63.99999938H576.00000031V445.60000031a31.99999969 31.99999969 0 0 0 63.99999938 0V319.99999969h125.48571468a31.99999969 31.99999969 0 1 0 0-63.99999938zM639.99999969 703.99999969a31.99999969 31.99999969 0 0 0-31.99999969 32.00000062V771.6571425a30.34285687 30.34285687 0 0 1-31.99999969 28.34285719H124.3428575A30.0571425 30.0571425 0 0 1 96.00000031 768v-448.00000031a9.84 9.84 0 0 1 0-3.6571425 30.20571469 30.20571469 0 0 1 31.99999969-28.34285719h12.79999969a34.41142875 34.41142875 0 0 0 32.00000062-31.99999969v-3.65714343A30.34285687 30.34285687 0 0 0 140.79999969 223.99999968999998H128A98.28571406 98.28571406 0 0 0 32 319.99999969V768A98.28571406 98.28571406 0 0 0 128 864h448.00000031A98.59428562 98.59428562 0 0 0 672.00000031 768v-31.99999969a32.09142844 32.09142844 0 0 0-32.00000062-32.00000062z"  horiz-adv-x="1024" />
      
      <glyph glyph-name="xiaoxi1" unicode="&#58988;" d="M323.22909125 352.36363594a63.05454563 63.05454563 0 0 0 0 126.02181844c34.77818156 0 63.05454563-28.27636406 63.05454469-63.01090876s-28.27636406-63.01090875-63.05454469-63.01090968z m253.17818156 63.05454562c0 34.73454563-28.23272719 63.01090875-63.01090875 63.01090969-34.73454563 0-63.01090875-28.27636406-63.01090968-63.01090969s28.27636406-63.01090875 63.01090968-63.01090875a63.05454563 63.05454563 0 0 1 63.01090875 63.01090875z m190.08 0c0 34.73454563-28.23272719 63.01090875-63.01090875 63.01090969s-63.01090875-28.27636406-63.01090968-63.01090969 28.23272719-63.01090875 63.01090968-63.01090875 63.01090875 28.23272719 63.01090875 63.01090875zM282.38545437-56.20363594000003l139.46181844 84.65454469c275.91272719-56.16 520.97454563 140.81454562 520.97454563 386.92363688 0 218.57454563-192.65454563 396.39272719-429.46909125 396.39272718S83.88363594 633.99272719 83.88363594 415.41818156c0-115.89818156 54.02181844-224.29090875 148.75636406-299.7818175v-143.82545531a32.64 32.64 0 0 1 32.72727281-32.72727281c5.89090875 0 11.78181844 1.57090875 17.01818156 4.71272812zM877.36727281 415.41818156c0-208.97454562-213.38181844-375.84-453.94909125-320.33454562a32.16 32.16 0 0 1-24.34909031-3.88363594l-100.93090969-61.26545438V131.78181844000005a32.64 32.64 0 0 1-13.35272718 26.35636312c-86.05090875 63.27272719-135.44727281 157.04727281-135.44727282 257.28 0 182.48727281 163.28727281 330.93818156 364.01454563 330.9381825s364.01454562-148.49454563 364.01454562-330.9381825z"  horiz-adv-x="1024" />
      
      <glyph glyph-name="gengduo" unicode="&#59123;" d="M512 823.99999969c243 0 439.99999969-196.99999969 439.99999969-439.99999969s-196.99999969-439.99999969-439.99999969-439.99999969S72.00000031 141 72.00000031 384 269 823.99999969 512 823.99999969z m0-69.99999938C307.65999969 754.00000031 141.99999969 588.34000031 141.99999969 384S307.65999969 13.999999689999981 512 13.999999689999981 882.00000031 179.65999968999995 882.00000031 384 716.34000031 754.00000031 512 754.00000031zM321.99999969 384m-49.99999969 0a49.99999969 49.99999969 0 1 1 100.00000031 0 49.99999969 49.99999969 0 1 1-100.00000031 0ZM512 384m-49.99999969 0a49.99999969 49.99999969 0 1 1 99.99999938 0 49.99999969 49.99999969 0 1 1-99.99999938 0ZM702.00000031 384m-50.00000062 0a49.99999969 49.99999969 0 1 1 100.00000031 0 49.99999969 49.99999969 0 1 1-100.00000031 0Z"  horiz-adv-x="1024" />
      
      <glyph glyph-name="sousuo" unicode="&#58945;" d="M457.06666667 810.66666667C662.36906667 810.66666667 828.8 644.23573333 828.8 438.93333333S662.36906667 67.20000000000005 457.06666667 67.20000000000005 85.33333333 233.63093332999995 85.33333333 438.93333333 251.76426667 810.66666667 457.06666667 810.66666667z m0-85.33333334C298.8928 725.33333333 170.66666667 597.1071999999999 170.66666667 438.93333333S298.8928 152.53333333 457.06666667 152.53333333 743.46666667 280.75946667000005 743.46666667 438.93333333 615.24053333 725.33333333 457.06666667 725.33333333zM666.28906667 168.26453332999995c-16.76053333 16.56533333-16.91946667 43.57973333-0.3552 60.34026667 16.39893333 16.592 43.04 16.91306667 59.8336 0.84586667l0.5056-0.49066667 200.53333333-198.1888c16.75946667-16.56426667 16.9184-43.57866667 0.3552-60.3392-16.39893333-16.592-43.04-16.91413333-59.8336-0.84693333l-0.5056 0.4928-200.53333333 198.18666666z"  horiz-adv-x="1024" />
      
      <glyph glyph-name="chuanganqishezhibuzu" unicode="&#58908;" d="M512 649.6c-70.4 0-128-57.6-128-128s57.6-128 128-128 128 57.6 128 128-54.4 128-128 128z m0-192c-35.2 0-64 28.8-64 64s28.8 64 64 64 64-28.8 64-64-25.6-64-64-64zM297.6 752C160 614.4 160 390.4 297.6 252.79999999999995l44.8 44.8c-112 112-112 294.4 0 406.4L297.6 752zM192 835.2L147.2 880c-198.4-198.4-198.4-521.6 0-723.2L192 201.60000000000002C22.4 377.6 22.4 659.2 192 835.2zM729.6 768l-44.8-44.8c112-112 112-294.4 0-406.4l44.8-44.8C864 406.4 864 630.4 729.6 768z m147.2 96L832 819.2c172.8-172.8 172.8-457.6 0-630.4l44.8-44.8c195.2 198.4 195.2 521.6 0 720zM512 336c-70.4 0-128-57.6-128-128v-64h64v64c0 35.2 28.8 64 64 64s64-28.8 64-64v-64h64v64c0 70.4-54.4 128-128 128z m-128-448h256v192h-256v-192z m64 128h128v-64h-128v64z"  horiz-adv-x="1024" />
      
      <glyph glyph-name="houtai_fuwuwangguanliebiao" unicode="&#58966;" d="M854.08 441.408l0.128 0.896V798.08a33.536 33.536 0 1 1-67.008 0v-356.288H237.632V798.208A33.664 33.664 0 0 1 204.16 832a33.6 33.6 0 0 1-33.472-33.792V442.24l0.064-0.896c-60.16-4.224-106.816-54.208-106.688-114.56v-275.456A115.2 115.2 0 0 1 179.008-64h666.88a115.2 115.2 0 0 1 114.944 115.392V326.91200000000003a115.008 115.008 0 0 1-106.752 114.56z m39.488-390.208a47.68 47.68 0 0 0-47.616-47.808H179.968a47.616 47.616 0 0 0-47.616 47.808V326.91200000000003c0 26.432 21.376 47.808 47.616 47.808h665.984c26.432 0 47.68-21.376 47.68-47.808V51.200000000000045zM414.72 584.704a26.048 26.048 0 0 1 0-38.08 29.12 29.12 0 0 1 39.808 0 72.96 72.96 0 0 0 99.84 0 28.672 28.672 0 0 1 39.616 0 26.048 26.048 0 0 1 0 38.08 131.136 131.136 0 0 1-179.328 0zM619.84 612.608a26.688 26.688 0 0 1 39.424 0 30.464 30.464 0 0 1 0 41.472 200.576 200.576 0 0 1-293.632 0 30.464 30.464 0 0 1 0-41.472 27.008 27.008 0 0 1 39.424 0 146.56 146.56 0 0 0 214.784 0zM292.288 672.512c11.264-10.816 28.992-10.816 40.32 0a249.344 249.344 0 0 0 175.872 71.36c66.432 0 128.832-25.28 175.808-71.36 11.2-10.816 28.928-10.816 39.936 0a27.648 27.648 0 0 1 0 39.36 307.328 307.328 0 0 1-215.936 87.552 306.304 306.304 0 0 1-216-87.68 27.648 27.648 0 0 1-8.32-19.648 27.52 27.52 0 0 1 8.32-19.584z m104.64-396.928h113.92v-111.552h-113.92V275.58399999999995z m-169.856 0H341.12v-111.552H227.072V275.58399999999995z"  horiz-adv-x="1024" />
      
      <glyph glyph-name="003tianjia" unicode="&#58965;" d="M826.98752 698.9824c-173.98272 173.94688-455.99744 173.94688-629.93408 0-173.98784-173.94176-173.98784-455.99232 0-629.92384 173.94176-173.99296 455.95136-173.99296 629.93408 0 173.93664 173.93152 173.93664 455.98208 0 629.92384z m-265.49248-512.96256c0-27.30496-22.15424-49.4592-49.50016-49.4592-27.36128 0-49.51552 22.15424-49.51552 49.4592v148.51584H314.01984c-27.36128 0-49.51552 22.15936-49.51552 49.4592 0 27.34592 22.15424 49.50016 49.51552 49.50016h148.45952V581.96992a49.50016 49.50016 0 0 0 49.51552 49.50528 49.49504 49.49504 0 0 0 49.50016-49.50528v-148.47488h148.47488a49.48992 49.48992 0 0 0 49.50016-49.50016c0-27.29984-22.15424-49.51552-49.50016-49.4592h-148.47488v-148.51584z"  horiz-adv-x="1024" />
      
      <glyph glyph-name="leidatu" unicode="&#58906;" d="M961.84542412 513.2209084C961.84542412 690.481725 817.42734776 834 639.71663047 834v-53.53816552c148.46718164 0 268.59062812-119.6735458 268.59062812-267.24092608H961.84542412zM630.71861943 455.18373692c26.54413242-9.44791172 57.13737012-3.59920459 78.28269609 17.54612226 29.24353565 29.24353565 29.24353565 76.48309336 0 105.726629s-76.93299404 29.24353565-106.17652968 0c-21.14532598-21.14532598-26.9940331-51.73856279-17.54612139-77.8327954-20.69542529-20.69542529-50.83876231-50.38886162-88.6304083-88.18050762L196.56458896 710.72724961C40.89899903 555.96146016 20.20357373 317.51416903999996 134.92821377 141.60305448999998l-31.94293887-31.49303818c-34.19244141-33.7425416-34.19244141-88.6304083 0-122.82285058l12.14731494-12.14731495c33.7425416-33.7425416 89.08030898-33.7425416 123.27275039 0l31.94293888 31.49303906c176.81091592-114.27473935 416.1580084-93.57931406 571.82359833 61.18647451l-300.0836663 298.73396514 88.63040829 88.63040742zM639.71663047 721.5248625V673.38550342c89.08030898 0 161.06439638-71.98408828 161.06439638-160.61449571h48.13935909c0 115.62444141-93.57931406 208.75385479-209.20375547 208.75385479z"  horiz-adv-x="1024" />
      
      <glyph glyph-name="radar" unicode="&#58880;" d="M917.147826 570.991304l-347.269565-149.147826c6.678261-11.130435 11.130435-22.26087 11.130435-35.617391 0-37.843478-28.93913-66.782609-66.782609-66.782609s-66.782609 28.93913-66.782609 66.782609 28.93913 66.782609 66.782609 66.782609c11.130435 0 22.26087-2.226087 31.165217-6.678261l84.591305 371.756522C589.913043 822.53913 552.069565 829.217391 512 829.217391 267.130435 829.217391 66.782609 628.869565 66.782609 384s200.347826-445.217391 445.217391-445.217391 445.217391 200.347826 445.217391 445.217391c0 66.782609-15.582609 129.113043-40.069565 186.991304zM512 72.347826c-171.408696 0-311.652174 140.243478-311.652174 311.652174S340.591304 695.652174 512 695.652174c13.356522 0 22.26087-8.904348 22.26087-22.26087s-8.904348-22.26087-22.26087-22.260869c-146.921739 0-267.130435-120.208696-267.130435-267.130435s120.208696-267.130435 267.130435-267.130435 267.130435 120.208696 267.130435 267.130435c0 17.808696-2.226087 35.617391-4.452174 53.426087-2.226087 11.130435 4.452174 24.486957 17.808696 26.713043 11.130435 2.226087 24.486957-4.452174 26.713043-17.808695 4.452174-20.034783 6.678261-42.295652 6.678261-62.330435-2.226087-171.408696-142.469565-311.652174-313.878261-311.652174zM712.347826 628.869565m-44.521739 0a44.521739 44.521739 0 1 1 89.043478 0 44.521739 44.521739 0 1 1-89.043478 0Z"  horiz-adv-x="1024" />
      
      <glyph glyph-name="caogao-bianji-wenjian-05" unicode="&#59182;" d="M769.536 819.370667v-139.946667h118.954667zM751.445333 607.402667c-29.866667 0-54.101333 24.234667-54.101333 54.101333V861.866667H172.714667C140.117333 861.866667 113.834667 830.122667 113.834667 791.04v-814.08c0-39.082667 26.453333-70.826667 59.050666-70.826667h678.4c32.597333 0 59.050667 31.744 59.050667 70.826667V607.402667h-158.890667z m-58.197333-195.413334L446.805333 165.546667c-2.56-2.56-5.802667-4.266667-9.216-4.949334l-93.013333-18.432c-12.629333-2.56-23.722667 8.533333-21.162667 21.162667l18.432 93.013333c0.682667 3.584 2.389333 6.656 4.949334 9.216L593.237333 512c6.997333 6.997333 18.432 6.997333 25.429334 0l74.581333-74.581333c6.997333-6.997333 6.997333-18.432 0-25.429334z"  horiz-adv-x="1024" />
      
    </font>
</defs>
</svg>
